<svg width="299" height="299" viewBox="0 0 299 299" fill="none" xmlns="http://www.w3.org/2000/svg">
<g clip-path="url(#clip0_435_283)">
<path d="M0 0H299V299H0V0Z" fill="white"/>
<mask id="mask0_435_283" style="mask-type:luminance" maskUnits="userSpaceOnUse" x="41" y="17" width="217" height="265">
<path d="M41.6299 17.25H257.37V281.98H41.6299V17.25Z" fill="white"/>
</mask>
<g mask="url(#mask0_435_283)">
<path d="M149.5 201.991C185.983 201.991 215.559 172.41 215.559 135.921C215.559 99.4316 185.983 69.8511 149.5 69.8511C113.016 69.8511 83.4409 99.4316 83.4409 135.921C83.4409 172.41 113.016 201.991 149.5 201.991Z" fill="white" stroke="#00609C" stroke-miterlimit="10"/>
<path d="M113.407 99.8223L149.5 130.808L185.593 99.8223L154.613 135.921L185.593 172.02L149.5 141.032L113.407 172.02L144.387 135.921L113.407 99.8223Z" fill="black"/>
<path d="M149.607 44.3721L165.835 118.91L149.607 135.659V44.3721Z" fill="white"/>
<path d="M149.709 45.3166L165.724 118.88L149.709 135.409V45.3166ZM149.506 43.4287V135.911L165.945 118.943L149.506 43.4287Z" fill="#00609C"/>
<path d="M133.159 118.91L149.405 44.333V135.667L133.159 118.91Z" fill="#4C8FBA"/>
<path d="M149.303 45.276V135.415L133.268 118.878L149.303 45.276ZM149.5 43.4204L133.047 118.941L149.5 135.909H149.506V43.4285L149.5 43.4225V43.4204Z" fill="#00609C"/>
<path d="M149.507 43.4146V43.4305L149.5 43.4212L149.507 43.4146Z" fill="white"/>
<path d="M149.507 43.4146L149.5 43.4212L149.507 43.4305V43.4146Z" fill="#00609C"/>
<path d="M57.9473 135.816L132.667 119.4L149.252 135.816H57.9473Z" fill="white"/>
<path d="M132.634 119.512L149.004 135.714H58.8838L132.634 119.512ZM132.699 119.29L57.0103 135.919H149.498L132.697 119.29H132.699Z" fill="#00609C"/>
<path d="M57.9634 136.019H149.246L132.321 152.086L57.9634 136.019Z" fill="#4C8FBA"/>
<path d="M148.992 136.12L132.291 151.977L58.9143 136.12H148.992ZM149.5 135.917H57.0122L132.351 152.198L149.494 135.925L149.5 135.919V135.917Z" fill="#00609C"/>
<path d="M149.494 135.925L132.351 152.204L57.0122 135.917L132.351 152.198L149.494 135.925Z" fill="white"/>
<path d="M57.0122 135.917L132.351 152.204L149.494 135.925L132.351 152.198L57.0122 135.917Z" fill="#00609C"/>
<path d="M132.811 152.584L149.392 136.167V227.485L132.811 152.584Z" fill="white"/>
<path d="M149.291 136.411V226.556L132.923 152.617L149.291 136.411ZM149.494 135.925L132.699 152.554L149.494 228.415V135.925Z" fill="#00609C"/>
<path d="M165.953 152.9L149.494 135.925L149.5 135.917L149.827 136.244L165.953 152.9Z" fill="white"/>
<path d="M149.5 135.917L149.494 135.925L165.953 152.9L149.827 136.244L149.5 135.917Z" fill="#00609C"/>
<path d="M149.596 136.175L165.842 152.932L149.596 227.509V136.175Z" fill="#4C8FBA"/>
<path d="M149.697 136.425L165.732 152.962L149.697 226.564V136.425ZM149.494 135.925V228.415L149.5 228.422L165.953 152.901L149.494 135.925Z" fill="#00609C"/>
<path d="M149.501 228.423L149.494 228.43V228.414L149.501 228.423Z" fill="white"/>
<path d="M149.494 228.414V228.43L149.501 228.423L149.494 228.414Z" fill="#00609C"/>
<path d="M149.898 136.173L149.752 136.027H241.054L166.333 152.44L149.898 136.173Z" fill="white"/>
<path d="M240.115 136.128L166.366 152.33L149.998 136.128H240.115ZM241.987 135.925H149.506L149.827 136.246L166.301 152.554L241.99 135.925H241.987Z" fill="#00609C"/>
<path d="M149.754 135.824L166.333 119.4L241.054 135.824H149.754Z" fill="#4C8FBA"/>
<path d="M166.366 119.512L240.118 135.722H150.002L166.366 119.512ZM166.301 119.29L149.506 135.925H241.987L166.299 119.29H166.301Z" fill="#00609C"/>
<path d="M151.55 35.5084C138.499 37.7237 136.55 18.9916 147.994 17.3696C160.313 15.6078 162.217 33.6996 151.55 35.5084ZM174.084 31.8583C168.221 36.1466 160.502 29.0355 164.602 22.7493C165.383 21.5646 167.144 20.2394 168.563 19.9732C175.939 18.6156 179.977 27.5375 174.084 31.8583ZM133.51 31.3136C127.179 37.364 117.73 27.6332 124.279 21.5198C130.625 15.5773 139.732 25.3405 133.51 31.3136ZM114.688 30.8138C107.718 34.604 104.318 22.158 112.085 21.4712C116.982 21.0342 119.662 28.0985 114.688 30.8138ZM185.187 31.2366C179.869 29.7082 181.086 21.6762 186.481 21.5198C193.764 21.3024 192.577 33.3583 185.187 31.2366Z" fill="#F6731F"/>
<path d="M254.026 208.572C245.612 247.257 214.047 237.654 184.329 239.338C179.245 239.63 174.252 241.019 169.205 241.569C175.953 247.165 183.012 252.416 189.395 258.433C192.814 261.671 200.496 268.366 200.678 273.047C200.843 277.072 197.588 281.334 193.528 281.883C186.725 282.778 184.365 277.309 180.177 273.36C170.814 264.47 160.81 255.854 149.252 249.927C140.035 254.629 131.622 261.103 124.014 268.09C120.869 270.982 112.676 280.676 109.219 281.389C101.337 282.999 95.3384 274.915 99.7093 268.348C101.922 265.018 109.75 257.941 113.041 254.939C118.034 250.385 123.429 246.252 128.842 242.208C128.458 241.569 127.91 241.68 127.343 241.532C113.681 237.691 96.3076 239.025 82.1343 238.039C49.5629 235.808 44.0217 220.241 42.4122 190.445C41.2783 169.154 41.4614 145.54 42.4122 124.195C42.595 120.171 41.5161 116.037 43.9851 112.598C47.5879 107.586 55.5249 107.989 58.4144 113.476C60.3165 117.097 59.6033 128.731 59.5483 133.432C59.3105 155.418 57.0064 183.001 60.9932 204.346C64.5959 223.717 77.233 220.095 93.1072 220.918C112.127 221.924 131.549 222.802 149.252 230.538C158.195 226.845 167.705 223.826 177.379 222.747C191.791 221.119 207.463 223.863 221.143 221.778C240.253 218.851 238.772 196.243 239.377 181.208C241.169 138.077 238.406 94.6359 239.451 51.4138C242.192 41.3539 255.489 42.9634 256.512 53.1333C258.341 71.3514 254.776 92.1666 256.97 110.586C254.994 141.955 260.682 177.952 254.026 208.572Z" fill="#00609C"/>
</g>
</g>
<defs>
<clipPath id="clip0_435_283">
<rect width="299" height="299" fill="white"/>
</clipPath>
</defs>
</svg>